<svg version="1" xmlns="http://www.w3.org/2000/svg" width="682.667" height="682.667" viewBox="0 0 512.000000 512.000000"><path d="M237.8.5c-.2.1-3.9.5-8.2.9-4.4.4-8.2.9-8.5 1.1-.4.2-3.4.7-6.6 1-11.7 1.4-47.2 11.1-49.9 13.6-.6.5-1.6.9-2.3.9-.8 0-4.9 1.6-9.1 3.5C118 37.6 91.4 56.9 65.5 85.2c-3.3 3.6-7.1 8-8.5 9.8-1.4 1.8-2.9 3.8-3.5 4.4-4.3 4.9-16.2 23.2-22.5 34.6-7.9 14.6-18.5 39.4-20.5 48.3-.2 1.2-1.8 7.6-3.4 14.2-5 20.3-6.4 32-6.7 56-.2 22 .7 33.9 4 51.3C25.2 413.5 114.7 496.9 226 510.4c25.2 3 63.3 1.1 86.9-4.5 65.8-15.6 120.2-53.5 157.6-109.9 8.5-12.9 20.5-36.5 25.9-51.2 6.3-17 12.3-42.5 14.3-61.3 1-8.9 1-42.7.1-52.5-5.9-59.3-31.7-113.5-74.5-156.5-7.7-7.7-16.3-15.4-20.7-18.5-1.2-.8-3-2.3-4.1-3.3-2-1.9-21.2-14.7-27.5-18.4-4.9-2.9-27.6-14.3-28.5-14.3-.4 0-2.1-.6-3.8-1.4C338 12.4 309.6 4.8 291 2.4c-2.5-.3-5.6-.8-7-1-2.7-.6-45.6-1.4-46.2-.9z"/></svg>