<?xml version="1.0" standalone="no"?>
<!DOCTYPE svg PUBLIC "-//W3C//DTD SVG 20010904//EN"
 "http://www.w3.org/TR/2001/REC-SVG-20010904/DTD/svg10.dtd">
<svg version="1.0" xmlns="http://www.w3.org/2000/svg"
 width="512.000000pt" height="512.000000pt" viewBox="0 0 512.000000 512.000000"
 preserveAspectRatio="xMidYMid meet">
<metadata>
Created by potrace 1.11, written by Peter Selinger 2001-2013
</metadata>
<g transform="translate(0.000000,512.000000) scale(0.100000,-0.100000)"
fill="#000000" stroke="none">
<path d="M2378 5115 c-2 -1 -39 -5 -82 -9 -44 -4 -82 -9 -85 -11 -4 -2 -34 -7
-66 -10 -117 -14 -472 -111 -499 -136 -6 -5 -16 -9 -23 -9 -8 0 -49 -16 -91
-35 -352 -161 -618 -354 -877 -637 -33 -36 -71 -80 -85 -98 -14 -18 -29 -38
-35 -44 -43 -49 -162 -232 -225 -346 -79 -146 -185 -394 -205 -483 -2 -12 -18
-76 -34 -142 -50 -203 -64 -320 -67 -560 -2 -220 7 -339 40 -513 208 -1097
1103 -1931 2216 -2066 252 -30 633 -11 869 45 658 156 1202 535 1576 1099 85
129 205 365 259 512 63 170 123 425 143 613 10 89 10 427 1 525 -59 593 -317
1135 -745 1565 -77 77 -163 154 -207 185 -12 8 -30 23 -41 33 -20 19 -212 147
-275 184 -49 29 -276 143 -285 143 -4 0 -21 6 -38 14 -137 62 -421 138 -607
162 -25 3 -56 8 -70 10 -27 6 -456 14 -462 9z"/>
</g>
</svg>
